<?xml version="1.0" encoding="UTF-8" standalone="no"?>
<!DOCTYPE svg PUBLIC "-//W3C//DTD SVG 1.1//EN" "http://www.w3.org/Graphics/SVG/1.1/DTD/svg11.dtd">
<!-- 由 Microsoft Visio, SVG Export 生成 类.svg Page-1 -->
<svg xmlns="http://www.w3.org/2000/svg" xmlns:xlink="http://www.w3.org/1999/xlink" xmlns:ev="http://www.w3.org/2001/xml-events"
		width="22.8858in" height="16.0354in" viewBox="0 0 1647.78 1154.55" xml:space="preserve" color-interpolation-filters="sRGB"
		class="st24">
	<style type="text/css">
	<![CDATA[
		.st1 {fill:#f2f2f2;stroke:#000000;stroke-linecap:round;stroke-linejoin:round;stroke-width:0.75}
		.st2 {fill:#ffffff;stroke:#000000;stroke-linecap:round;stroke-linejoin:round;stroke-width:0.75}
		.st3 {fill:#000000;font-family:Times New Roman;font-size:1.00001em}
		.st4 {font-family:宋体;font-size:1em}
		.st5 {fill:#5151ff;font-family:Times New Roman;font-size:1.16666em;font-weight:bold}
		.st6 {marker-end:url(#mrkr14-88);stroke:#000000;stroke-linecap:round;stroke-linejoin:round;stroke-width:0.24}
		.st7 {fill:#000000;fill-opacity:1;stroke:#000000;stroke-opacity:1;stroke-width:0.08695652173913}
		.st8 {fill:#ffffff}
		.st9 {stroke:#000000;stroke-dasharray:1.5,0.75;stroke-linecap:butt;stroke-width:0.75}
		.st10 {fill:#ffffff;fill-opacity:0}
		.st11 {stroke:#000000;stroke-linecap:round;stroke-linejoin:round;stroke-width:0.75;visibility:hidden}
		.st12 {fill:#ff0000;font-family:Times New Roman;font-size:1.00001em}
		.st13 {fill:#000000;font-size:1em}
		.st14 {stroke:#0000ff;stroke-linecap:round;stroke-linejoin:round;stroke-width:0.75;visibility:hidden}
		.st15 {stroke:#000000;stroke-linecap:round;stroke-linejoin:round;stroke-width:0.75}
		.st16 {fill:#000000;font-family:宋体;font-size:1.00001em}
		.st17 {fill:#4bacc6;font-family:Times New Roman;font-size:1.00001em;font-weight:bold}
		.st18 {fill:#ff0000;font-size:1em}
		.st19 {fill:#4bacc6;font-size:0.83333em;font-weight:bold}
		.st20 {font-size:0.83333em;font-weight:bold}
		.st21 {font-size:1em;font-weight:bold}
		.st22 {fill:#5151ff;font-size:0.83333em}
		.st23 {font-size:1em}
		.st24 {fill:none;fill-rule:evenodd;font-size:12px;overflow:visible;stroke-linecap:square;stroke-miterlimit:3}
	]]>
	</style>

	<defs id="Markers">
		<g id="lend14">
			<path d="M 3 -1 L 0 0 L 3 1 L 3 -1 " style="stroke-linecap:round;stroke-linejoin:round;fill:none"/>
		</g>
		<marker id="mrkr14-88" class="st7" refX="-34.5" orient="auto" markerUnits="strokeWidth" overflow="visible">
			<use xlink:href="#lend14" transform="scale(-11.5,-11.5) "/>
		</marker>
	</defs>
	<g>
		<title>页-1</title>
		<g id="group17-1" transform="translate(18,-770.528)">
			<title>类</title>
			<desc>MEntity</desc>
			<g id="shape18-2">
				<title>工作表.18</title>
				<path d="M0 1154.55 L95.39 1154.55 L95.39 1146.05 L0 1146.05 L0 1154.55 Z" class="st1"/>
			</g>
			<g id="shape19-4" transform="translate(0,-8.50394)">
				<title>工作表.19</title>
				<path d="M0 1154.55 L95.39 1154.55 L95.39 1105.45 L0 1105.45 L0 1154.55 Z" class="st2"/>
			</g>
			<g id="shape20-6" transform="translate(0,-37.8074)">
				<title>工作表.20</title>
				<desc>&#60;&#60;抽象类&#62;&#62;</desc>
				<text x="4" y="1150.6" class="st3">&#60;&#60;<tspan class="st4">抽象类</tspan>&#62;&#62;</text>			</g>
			<g id="shape21-9" transform="translate(86.8819,-57.6043)">
				<title>工作表.21</title>
				<desc>参数</desc>
			</g>
			<g id="shape17-10">
				<text x="4" y="1133.35" class="st5">MEntity</text>			</g>
		</g>
		<g id="group25-12" transform="translate(155.906,-857.07)">
			<title>类.25</title>
			<desc>MPEntity</desc>
			<g id="shape26-13">
				<title>工作表.26</title>
				<path d="M0 1154.55 L184.25 1154.55 L184.25 1110.05 L0 1110.05 L0 1154.55 Z" class="st1"/>
			</g>
			<g id="shape27-15" transform="translate(0,-44.5039)">
				<title>工作表.27</title>
				<path d="M0 1154.55 L184.25 1154.55 L184.25 1105.45 L0 1105.45 L0 1154.55 Z" class="st2"/>
			</g>
			<g id="shape28-17" transform="translate(0,-73.8074)">
				<title>工作表.28</title>
				<desc>&#60;&#60;抽象类&#62;&#62;</desc>
				<text x="4" y="1150.6" class="st3">&#60;&#60;<tspan class="st4">抽象类</tspan>&#62;&#62;</text>			</g>
			<g id="shape29-20" transform="translate(175.748,-93.6043)">
				<title>工作表.29</title>
				<desc>参数</desc>
			</g>
			<g id="shape25-21">
				<text x="4" y="1097.35" class="st5">MPEntity</text>			</g>
		</g>
		<g id="group47-23" transform="translate(155.906,-336.606)">
			<title>类.47</title>
			<desc>MSEntity</desc>
			<g id="shape48-24">
				<title>工作表.48</title>
				<path d="M0 1154.55 L184.25 1154.55 L184.25 1128.05 L0 1128.05 L0 1154.55 Z" class="st1"/>
			</g>
			<g id="shape49-26" transform="translate(0,-26.5039)">
				<title>工作表.49</title>
				<path d="M0 1154.55 L184.25 1154.55 L184.25 1105.45 L0 1105.45 L0 1154.55 Z" class="st2"/>
			</g>
			<g id="shape50-28" transform="translate(0,-55.8074)">
				<title>工作表.50</title>
				<desc>&#60;&#60;抽象类&#62;&#62;</desc>
				<text x="4" y="1150.6" class="st3">&#60;&#60;<tspan class="st4">抽象类</tspan>&#62;&#62;</text>			</g>
			<g id="shape51-31" transform="translate(175.748,-75.6043)">
				<title>工作表.51</title>
				<desc>参数</desc>
			</g>
			<g id="shape47-32">
				<text x="4" y="1115.35" class="st5">MSEntity</text>			</g>
		</g>
		<g id="group99-34" transform="translate(368.504,-269.726)">
			<title>类.99</title>
			<desc>MSExtrusion</desc>
			<g id="shape100-35">
				<title>工作表.100</title>
				<path d="M0 1154.55 L304.44 1154.55 L304.44 1074.05 L0 1074.05 L0 1154.55 Z" class="st1"/>
			</g>
			<g id="shape101-37" transform="translate(0,-80.5039)">
				<title>工作表.101</title>
				<path d="M0 1154.55 L304.44 1154.55 L304.44 1120.75 L0 1120.75 L0 1154.55 Z" class="st2"/>
			</g>
			<g id="shape103-39" transform="translate(295.937,-114.307)">
				<title>工作表.103</title>
				<desc>参数</desc>
			</g>
			<g id="shape99-40">
				<text x="4" y="1061.35" class="st5">MSExtrusion</text>			</g>
		</g>
		<g id="group110-42" transform="translate(368.504,-428.466)">
			<title>类.110</title>
			<desc>MSFacetedbrep</desc>
			<g id="shape111-43">
				<title>工作表.111</title>
				<path d="M0 1154.55 L304.44 1154.55 L304.44 1092.05 L0 1092.05 L0 1154.55 Z" class="st1"/>
			</g>
			<g id="shape112-45" transform="translate(0,-62.5039)">
				<title>工作表.112</title>
				<path d="M0 1154.55 L304.44 1154.55 L304.44 1120.75 L0 1120.75 L0 1154.55 Z" class="st2"/>
			</g>
			<g id="shape114-47" transform="translate(295.937,-96.3074)">
				<title>工作表.114</title>
				<desc>参数</desc>
			</g>
			<g id="shape110-48">
				<text x="4" y="1079.35" class="st5">MSFacetedbrep</text>			</g>
		</g>
		<g id="group155-50" transform="translate(396.85,-976.464)">
			<title>类.155</title>
			<desc>MPLine</desc>
			<g id="shape156-51">
				<title>工作表.156</title>
				<path d="M0 1154.55 L277.8 1154.55 L277.8 1038.05 L0 1038.05 L0 1154.55 Z" class="st1"/>
			</g>
			<g id="shape157-53" transform="translate(0,-116.504)">
				<title>工作表.157</title>
				<path d="M0 1154.55 L277.8 1154.55 L277.8 1120.75 L0 1120.75 L0 1154.55 Z" class="st2"/>
			</g>
			<g id="shape159-55" transform="translate(269.291,-150.307)">
				<title>工作表.159</title>
				<desc>参数</desc>
			</g>
			<g id="shape155-56">
				<text x="4" y="1025.35" class="st5">MPLine</text>			</g>
		</g>
		<g id="group167-58" transform="translate(396.85,-826.734)">
			<title>类.167</title>
			<desc>MPPolyline</desc>
			<g id="shape168-59">
				<title>工作表.168</title>
				<path d="M0 1154.55 L233.57 1154.55 L233.57 1074.05 L0 1074.05 L0 1154.55 Z" class="st1"/>
			</g>
			<g id="shape169-61" transform="translate(0,-80.5039)">
				<title>工作表.169</title>
				<path d="M0 1154.55 L233.57 1154.55 L233.57 1120.75 L0 1120.75 L0 1154.55 Z" class="st2"/>
			</g>
			<g id="shape171-63" transform="translate(225.071,-114.307)">
				<title>工作表.171</title>
				<desc>参数</desc>
			</g>
			<g id="shape167-64">
				<text x="4" y="1061.35" class="st5">MPPolyline</text>			</g>
		</g>
		<g id="group186-66" transform="translate(680.315,-679.393)">
			<title>类.186</title>
			<desc>MPArc</desc>
			<g id="shape187-67">
				<title>工作表.187</title>
				<path d="M0 1154.55 L233.57 1154.55 L233.57 1074.05 L0 1074.05 L0 1154.55 Z" class="st1"/>
			</g>
			<g id="shape188-69" transform="translate(0,-80.5039)">
				<title>工作表.188</title>
				<path d="M0 1154.55 L233.57 1154.55 L233.57 1120.75 L0 1120.75 L0 1154.55 Z" class="st2"/>
			</g>
			<g id="shape190-71" transform="translate(225.071,-114.307)">
				<title>工作表.190</title>
				<desc>参数</desc>
			</g>
			<g id="shape186-72">
				<text x="4" y="1061.35" class="st5">MPArc</text>			</g>
		</g>
		<g id="group196-74" transform="translate(396.85,-681.322)">
			<title>类.196</title>
			<desc>MPCircle</desc>
			<g id="shape197-75">
				<title>工作表.197</title>
				<path d="M0 1154.55 L233.57 1154.55 L233.57 1074.05 L0 1074.05 L0 1154.55 Z" class="st1"/>
			</g>
			<g id="shape198-77" transform="translate(0,-80.5039)">
				<title>工作表.198</title>
				<path d="M0 1154.55 L233.57 1154.55 L233.57 1120.75 L0 1120.75 L0 1154.55 Z" class="st2"/>
			</g>
			<g id="shape200-79" transform="translate(225.071,-114.307)">
				<title>工作表.200</title>
				<desc>参数</desc>
			</g>
			<g id="shape196-80">
				<text x="4" y="1061.35" class="st5">MPCircle</text>			</g>
		</g>
		<g id="group226-82" transform="translate(155.906,-903.872)">
			<title>继承</title>
			<g id="shape226-83">
				<path d="M0 1154.55 L-14.9 1154.55 L-14.9 1259.09 L-34.24 1259.09" class="st6"/>
			</g>
		</g>
		<g id="group231-89" transform="translate(155.906,-374.408)">
			<title>继承.231</title>
			<g id="shape231-90">
				<path d="M0 1154.55 L-14.9 1154.55 L-14.9 729.63 L-34.24 729.63" class="st6"/>
			</g>
		</g>
		<g id="group246-95" transform="translate(396.85,-1051.62)">
			<title>继承.246</title>
			<g id="shape246-96">
				<path d="M0 1154.55 L-16.51 1154.55 L-16.51 1302.3 L-48.41 1302.3" class="st6"/>
			</g>
		</g>
		<g id="group251-101" transform="translate(396.85,-883.888)">
			<title>继承.251</title>
			<g id="shape251-102">
				<path d="M0 1154.55 L0 1134.57 L-48.41 1134.57" class="st6"/>
			</g>
		</g>
		<g id="group256-107" transform="translate(396.85,-738.476)">
			<title>继承.256</title>
			<g id="shape256-108">
				<path d="M0 1154.55 L-16.51 1154.55 L-16.51 989.15 L-48.41 989.15" class="st6"/>
			</g>
		</g>
		<g id="group261-113" transform="translate(368.504,-326.88)">
			<title>继承.261</title>
			<g id="shape261-114">
				<path d="M0 1154.55 L-14.9 1154.55 L-14.9 1107.02 L-20.07 1107.02" class="st6"/>
			</g>
		</g>
		<g id="group266-119" transform="translate(368.504,-476.62)">
			<title>继承.266</title>
			<g id="shape266-120">
				<path d="M0 1154.55 L-14.9 1154.55 L-14.9 1256.76 L-20.07 1256.76" class="st6"/>
			</g>
		</g>
		<g id="group271-125" transform="translate(680.315,-731.298)">
			<title>继承.271</title>
			<g id="shape271-126">
				<path d="M0 1147.56 L-41.61 1147.4" class="st6"/>
			</g>
		</g>
		<g id="group276-131" transform="translate(155.906,-578.151)">
			<title>类.276</title>
			<desc>MFace</desc>
			<g id="shape277-132">
				<title>工作表.277</title>
				<path d="M0 1154.55 L233.57 1154.55 L233.57 1110.05 L0 1110.05 L0 1154.55 Z" class="st1"/>
			</g>
			<g id="shape278-134" transform="translate(0,-44.5039)">
				<title>工作表.278</title>
				<path d="M0 1154.55 L233.57 1154.55 L233.57 1120.75 L0 1120.75 L0 1154.55 Z" class="st2"/>
			</g>
			<g id="shape280-136" transform="translate(225.071,-78.3074)">
				<title>工作表.280</title>
				<desc>参数</desc>
			</g>
			<g id="shape276-137">
				<text x="4" y="1097.35" class="st5">MFace</text>			</g>
		</g>
		<g id="group286-139" transform="translate(155.906,-617.304)">
			<title>继承.286</title>
			<g id="shape286-140">
				<path d="M0 1154.55 L-14.9 1154.55 L-14.9 972.53 L-34.24 972.53" class="st6"/>
			</g>
		</g>
		<g id="shape23-145" transform="translate(20.8346,-773.363)">
			<title>分隔符</title>
			<path d="M0 1153.13 L89.72 1153.13 L0 1153.13 Z" class="st8"/>
			<path d="M0 1153.13 L89.72 1153.13" class="st9"/>
		</g>
		<g id="shape31-148" transform="translate(158.74,-895.905)">
			<title>分隔符.31</title>
			<path d="M0 1153.13 L178.58 1153.13 L0 1153.13 Z" class="st8"/>
			<path d="M0 1153.13 L178.58 1153.13" class="st9"/>
		</g>
		<g id="shape32-151" transform="translate(158.74,-877.905)">
			<title>成员.32</title>
			<desc>virtual getStartPoint() =0</desc>
			<rect x="0" y="1136.55" width="178.583" height="18" class="st10"/>
			<rect x="0" y="1136.55" width="178.583" height="18" class="st11"/>
			<text x="8.5" y="1149.75" class="st12">virtual<tspan class="st13"> </tspan><tspan class="st13">getStartPoint</tspan><tspan
						class="st13">() </tspan>=0</text>		</g>
		<g id="shape53-158" transform="translate(158.74,-357.441)">
			<title>分隔符.53</title>
			<path d="M0 1153.13 L178.58 1153.13 L0 1153.13 Z" class="st8"/>
			<path d="M0 1153.13 L178.58 1153.13" class="st9"/>
		</g>
		<g id="shape63-161" transform="translate(158.74,-339.441)">
			<title>成员</title>
			<desc>virtual getCornerPoints() =0</desc>
			<rect x="0" y="1136.55" width="178.583" height="18" class="st10"/>
			<rect x="0" y="1136.55" width="178.583" height="18" class="st14"/>
			<text x="8.5" y="1149.75" class="st12">virtual<tspan class="st13"> </tspan><tspan class="st13">getCornerPoints</tspan><tspan
						class="st13">() </tspan>=0</text>		</g>
		<g id="shape64-168" transform="translate(158.74,-859.905)">
			<title>成员.64</title>
			<desc>virtual getEndPoint() =0</desc>
			<rect x="0" y="1136.55" width="178.583" height="18" class="st10"/>
			<rect x="0" y="1136.55" width="178.583" height="18" class="st11"/>
			<text x="8.5" y="1149.75" class="st12">virtual<tspan class="st13"> </tspan><tspan class="st13">getEndPoint</tspan><tspan
						class="st13">() </tspan>=0</text>		</g>
		<g id="group77-175" transform="translate(114.505,-969.525)">
			<title>注释</title>
			<desc>平面几何类</desc>
			<g id="shape77-176">
				<path d="M0 1154.55 L70.87 1154.55 L70.87 1137.54 L62.36 1129.04 L0 1129.04 L0 1154.55 Z" class="st8"/>
				<path d="M70.87 1154.55 L74.97 1173.4" class="st15"/>
				<path d="M0 1154.55 L70.87 1154.55 L70.87 1137.54 L62.36 1129.04 L0 1129.04 L0 1154.55" class="st15"/>
				<text x="6.87" y="1145.74" class="st16">平面几何类</text>			</g>
			<g id="shape78-181" transform="translate(62.3622,-17.0079)">
				<title>工作表.78</title>
				<path d="M0 1154.55 L8.5 1154.55 L8.5 1155.4 L8.5 1154.55 L0 1146.05 L-0.85 1146.05 L0 1146.05 L0 1154.55 Z"
						class="st2"/>
			</g>
		</g>
		<g id="shape104-183" transform="translate(371.339,-290.561)">
			<title>分隔符.104</title>
			<path d="M0 1153.13 L298.77 1153.13 L0 1153.13 Z" class="st8"/>
			<path d="M0 1153.13 L298.77 1153.13" class="st9"/>
		</g>
		<g id="shape105-186" transform="translate(371.339,-272.561)">
			<title>成员.105</title>
			<desc>QList&#60;osg::Vec3&#62; getCornerPoints() override</desc>
			<rect x="0" y="1136.55" width="298.772" height="18" class="st10"/>
			<rect x="0" y="1136.55" width="298.772" height="18" class="st11"/>
			<text x="8.5" y="1149.75" class="st17">QList&#60;osg::Vec3&#62;<tspan class="st13"> </tspan><tspan dx="2.63em"
						class="st13">getCornerPoints()</tspan><tspan class="st13"> </tspan><tspan class="st18">override</tspan></text>		</g>
		<g id="shape106-194" transform="translate(371.339,-329.396)">
			<title>成员.106</title>
			<desc>- MFace* m_face</desc>
			<rect x="0" y="1136.55" width="298.772" height="18" class="st10"/>
			<rect x="0" y="1136.55" width="298.772" height="18" class="st11"/>
			<text x="8.5" y="1149.15" class="st3">- <tspan class="st19">MFace* </tspan><tspan dx="0.11em" class="st20"> </tspan><tspan
						dx="8.254em" class="st20">m_face</tspan></text>		</g>
		<g id="shape115-201" transform="translate(371.339,-449.301)">
			<title>分隔符.115</title>
			<path d="M0 1153.13 L298.77 1153.13 L0 1153.13 Z" class="st8"/>
			<path d="M0 1153.13 L298.77 1153.13" class="st9"/>
		</g>
		<g id="shape117-204" transform="translate(371.339,-470.136)">
			<title>成员.117</title>
			<desc>- QList&#60;MPPolyline*&#62; m_outerCurve;</desc>
			<rect x="0" y="1136.55" width="298.772" height="18" class="st10"/>
			<rect x="0" y="1136.55" width="298.772" height="18" class="st11"/>
			<text x="8.5" y="1149.17" class="st3">- <tspan class="st19">QList&#60;MPPolyline*&#62; </tspan><tspan dx="2.477em"
						class="st21">m_outerCurve;</tspan></text>		</g>
		<g id="shape130-210" transform="translate(371.339,-431.301)">
			<title>成员.130</title>
			<desc>QList&#60;osg::Vec3&#62; getCornerPoints() override</desc>
			<rect x="0" y="1136.55" width="298.772" height="18" class="st10"/>
			<rect x="0" y="1136.55" width="298.772" height="18" class="st11"/>
			<text x="8.5" y="1149.75" class="st17">QList&#60;osg::Vec3&#62;<tspan class="st13"> </tspan><tspan dx="2.63em"
						class="st13">getCornerPoints()</tspan><tspan class="st13"> </tspan><tspan class="st18">override</tspan></text>		</g>
		<g id="group132-218" transform="translate(106.299,-285.36)">
			<title>注释.132</title>
			<desc>立体几何类</desc>
			<g id="shape132-219">
				<path d="M0 1154.55 L70.87 1154.55 L70.87 1137.54 L62.36 1129.04 L0 1129.04 L0 1154.55 Z" class="st8"/>
				<path d="M66.61 1133.29 L89.06 1103.3" class="st15"/>
				<path d="M0 1154.55 L70.87 1154.55 L70.87 1137.54 L62.36 1129.04 L0 1129.04 L0 1154.55" class="st15"/>
				<text x="6.87" y="1145.74" class="st16">立体几何类</text>			</g>
			<g id="shape133-224" transform="translate(62.3622,-17.0079)">
				<title>工作表.133</title>
				<path d="M0 1154.55 L8.5 1154.55 L8.5 1155.4 L8.5 1154.55 L0 1146.05 L-0.85 1146.05 L0 1146.05 L0 1154.55 Z"
						class="st2"/>
			</g>
		</g>
		<g id="shape136-226" transform="translate(371.339,-311.396)">
			<title>成员.136</title>
			<desc>- double m_depth</desc>
			<rect x="0" y="1136.55" width="298.772" height="18" class="st10"/>
			<rect x="0" y="1136.55" width="298.772" height="18" class="st11"/>
			<text x="8.5" y="1149.15" class="st3">- <tspan class="st19">double </tspan><tspan dx="0.662em" class="st22"> </tspan><tspan
						dx="8.254em" class="st20">m_depth</tspan></text>		</g>
		<g id="shape144-233" transform="translate(371.339,-293.396)">
			<title>成员.144</title>
			<desc>- osg::Vec3 m_direction</desc>
			<rect x="0" y="1136.55" width="298.772" height="18" class="st10"/>
			<rect x="0" y="1136.55" width="298.772" height="18" class="st11"/>
			<text x="8.5" y="1149.15" class="st3">- <tspan class="st19">osg::Vec3</tspan><tspan class="st22"> </tspan><tspan
						dx="7.641em" class="st20">m_direction</tspan></text>		</g>
		<g id="group151-240" transform="translate(744.095,-424.745)">
			<title>注释.151</title>
			<desc>由一系列面组成的封闭实体</desc>
			<g id="shape151-241">
				<path d="M0 1154.55 L70.87 1154.55 L70.87 1107.78 L62.36 1099.28 L0 1099.28 L0 1154.55 Z" class="st8"/>
				<path d="M0 1123.59 L-71.15 1116.93" class="st15"/>
				<path d="M0 1154.55 L70.87 1154.55 L70.87 1107.78 L62.36 1099.28 L0 1099.28 L0 1154.55" class="st15"/>
				<text x="4" y="1115.42" class="st16">由一系列面<tspan x="4" dy="1.2em" class="st23">组成的封闭</tspan><tspan x="4"
							dy="1.287em" class="st23">实体</tspan></text>			</g>
			<g id="shape152-248" transform="translate(62.3622,-46.7717)">
				<title>工作表.152</title>
				<path d="M0 1154.55 L8.5 1154.55 L8.5 1155.4 L8.5 1154.55 L0 1146.05 L-0.85 1146.05 L0 1146.05 L0 1154.55 Z"
						class="st2"/>
			</g>
		</g>
		<g id="group153-250" transform="translate(745.228,-298.994)">
			<title>注释.153</title>
			<desc>拉伸体</desc>
			<g id="shape153-251">
				<path d="M0 1154.55 L70.87 1154.55 L70.87 1137.54 L62.36 1129.04 L0 1129.04 L0 1154.55 Z" class="st8"/>
				<path d="M0 1139.73 L-72.28 1135.53" class="st15"/>
				<path d="M0 1154.55 L70.87 1154.55 L70.87 1137.54 L62.36 1129.04 L0 1129.04 L0 1154.55" class="st15"/>
				<text x="4" y="1145.74" class="st16">拉伸体</text>			</g>
			<g id="shape154-256" transform="translate(62.3622,-17.0079)">
				<title>工作表.154</title>
				<path d="M0 1154.55 L8.5 1154.55 L8.5 1155.4 L8.5 1154.55 L0 1146.05 L-0.85 1146.05 L0 1146.05 L0 1154.55 Z"
						class="st2"/>
			</g>
		</g>
		<g id="shape160-258" transform="translate(399.685,-1051.3)">
			<title>分隔符.160</title>
			<path d="M0 1153.13 L272.13 1153.13 L0 1153.13 Z" class="st8"/>
			<path d="M0 1153.13 L272.13 1153.13" class="st9"/>
		</g>
		<g id="shape161-261" transform="translate(399.685,-1072.13)">
			<title>成员.161</title>
			<desc>- QPointF m_startPoint</desc>
			<rect x="0" y="1136.55" width="272.126" height="18" class="st10"/>
			<rect x="0" y="1136.55" width="272.126" height="18" class="st11"/>
			<text x="8.5" y="1149.17" class="st3">- <tspan class="st19">QPointF  </tspan><tspan dx="6.991em" class="st21">m_startPoint</tspan></text>		</g>
		<g id="shape162-267" transform="translate(399.685,-997.299)">
			<title>成员.162</title>
			<desc>QPointF getStartPoint() override</desc>
			<rect x="0" y="1136.55" width="272.126" height="18" class="st10"/>
			<rect x="0" y="1136.55" width="272.126" height="18" class="st11"/>
			<text x="8.5" y="1149.75" class="st17">QPointF<tspan class="st13"> </tspan><tspan dx="6.713em" class="st13">getStartPoint()</tspan><tspan
						class="st13"> </tspan><tspan class="st18">override</tspan></text>		</g>
		<g id="shape165-275" transform="translate(399.685,-979.299)">
			<title>成员.165</title>
			<desc>QPointF getEndPoint() override</desc>
			<rect x="0" y="1136.55" width="272.126" height="18" class="st10"/>
			<rect x="0" y="1136.55" width="272.126" height="18" class="st11"/>
			<text x="8.5" y="1149.75" class="st17">QPointF  <tspan dx="6.963em" class="st13">getEndPoint()</tspan><tspan
						class="st13"> </tspan><tspan class="st18">override</tspan></text>		</g>
		<g id="shape172-282" transform="translate(399.685,-865.569)">
			<title>分隔符.172</title>
			<path d="M0 1153.13 L227.91 1153.13 L0 1153.13 Z" class="st8"/>
			<path d="M0 1153.13 L227.91 1153.13" class="st9"/>
		</g>
		<g id="shape173-285" transform="translate(399.685,-886.403)">
			<title>成员.173</title>
			<desc>- QPointF m_startPoint</desc>
			<rect x="0" y="1136.55" width="227.906" height="18" class="st10"/>
			<rect x="0" y="1136.55" width="227.906" height="18" class="st11"/>
			<text x="8.5" y="1149.17" class="st3">- <tspan class="st19">QPointF </tspan><tspan dx="3.448em" class="st21">m_startPoint</tspan></text>		</g>
		<g id="shape174-291" transform="translate(399.685,-847.569)">
			<title>成员.174</title>
			<desc>QPointF getStartPoint() override</desc>
			<rect x="0" y="1136.55" width="227.906" height="18" class="st10"/>
			<rect x="0" y="1136.55" width="227.906" height="18" class="st11"/>
			<text x="8.5" y="1149.75" class="st17">QPointF <tspan dx="3.42em" class="st13">getStartPoint()</tspan><tspan
						class="st13"> </tspan><tspan class="st18">override</tspan></text>		</g>
		<g id="shape175-298" transform="translate(399.685,-829.569)">
			<title>成员.175</title>
			<desc>QPointF getEndPoint() override</desc>
			<rect x="0" y="1136.55" width="227.906" height="18" class="st10"/>
			<rect x="0" y="1136.55" width="227.906" height="18" class="st11"/>
			<text x="8.5" y="1149.75" class="st17">QPointF <tspan dx="3.42em" class="st13">getEndPoint()</tspan><tspan class="st13"> </tspan><tspan
						class="st18">override</tspan></text>		</g>
		<g id="shape176-305" transform="translate(399.685,-1033.3)">
			<title>成员.176</title>
			<desc>QList&#60;QPointF&#62; getNodes()</desc>
			<rect x="0" y="1136.55" width="272.126" height="18" class="st10"/>
			<rect x="0" y="1136.55" width="272.126" height="18" class="st11"/>
			<text x="8.5" y="1149.75" class="st17">QList&#60;QPointF&#62;<tspan class="st13"> </tspan><tspan dx="3.129em"
						class="st13">getNodes()</tspan></text>		</g>
		<g id="shape178-311" transform="translate(399.685,-868.403)">
			<title>成员.178</title>
			<desc>- QPointF m_endPoint</desc>
			<rect x="0" y="1136.55" width="227.906" height="18" class="st10"/>
			<rect x="0" y="1136.55" width="227.906" height="18" class="st11"/>
			<text x="8.5" y="1149.17" class="st3">- <tspan class="st19">QPointF </tspan><tspan dx="3.448em" class="st21">m_</tspan><tspan
						class="st21">endPoint</tspan></text>		</g>
		<g id="shape180-318" transform="translate(399.685,-1054.13)">
			<title>成员.180</title>
			<desc>- QPointF m_endPoint</desc>
			<rect x="0" y="1136.55" width="272.126" height="18" class="st10"/>
			<rect x="0" y="1136.55" width="272.126" height="18" class="st11"/>
			<text x="8.5" y="1149.17" class="st3">- <tspan class="st19">QPointF  </tspan><tspan dx="6.991em" class="st21">m_</tspan><tspan
						class="st21">endPoint</tspan></text>		</g>
		<g id="shape182-325" transform="translate(371.339,-452.136)">
			<title>成员.182</title>
			<desc>- RefPosition m_refPosition</desc>
			<rect x="0" y="1136.55" width="298.772" height="18" class="st10"/>
			<rect x="0" y="1136.55" width="298.772" height="18" class="st11"/>
			<text x="8.5" y="1149.17" class="st3">- <tspan class="st19">RefPosition  </tspan><tspan dx="5.927em" class="st21">m_refPosition</tspan></text>		</g>
		<g id="shape184-331" transform="translate(399.685,-1015.3)">
			<title>成员.184</title>
			<desc>bool isClosed()</desc>
			<rect x="0" y="1136.55" width="272.126" height="18" class="st10"/>
			<rect x="0" y="1136.55" width="272.126" height="18" class="st11"/>
			<text x="8.5" y="1149.75" class="st17">bool<tspan class="st13"> </tspan><tspan dx="8.546em" class="st13">isClosed()</tspan></text>		</g>
		<g id="shape191-337" transform="translate(683.15,-718.228)">
			<title>分隔符.191</title>
			<path d="M0 1153.13 L227.91 1153.13 L0 1153.13 Z" class="st8"/>
			<path d="M0 1153.13 L227.91 1153.13" class="st9"/>
		</g>
		<g id="shape192-340" transform="translate(683.15,-739.063)">
			<title>成员.192</title>
			<desc>- double m_startAngle</desc>
			<rect x="0" y="1136.55" width="227.906" height="18" class="st10"/>
			<rect x="0" y="1136.55" width="227.906" height="18" class="st11"/>
			<text x="8.5" y="1149.17" class="st3">- <tspan class="st19">double  </tspan><tspan dx="4.095em" class="st21">m_startAngle</tspan></text>		</g>
		<g id="shape193-346" transform="translate(683.15,-700.228)">
			<title>成员.193</title>
			<desc>QPointF getStartPoint() override</desc>
			<rect x="0" y="1136.55" width="227.906" height="18" class="st10"/>
			<rect x="0" y="1136.55" width="227.906" height="18" class="st11"/>
			<text x="8.5" y="1149.75" class="st17">QPointF <tspan dx="3.42em" class="st13">getStartPoint()</tspan><tspan
						class="st13"> </tspan><tspan class="st18">override</tspan></text>		</g>
		<g id="shape194-353" transform="translate(683.15,-682.228)">
			<title>成员.194</title>
			<desc>QPointF getEndPoint() override</desc>
			<rect x="0" y="1136.55" width="227.906" height="18" class="st10"/>
			<rect x="0" y="1136.55" width="227.906" height="18" class="st11"/>
			<text x="8.5" y="1149.75" class="st17">QPointF <tspan dx="3.42em" class="st13">getEndPoint()</tspan><tspan class="st13"> </tspan><tspan
						class="st18">override</tspan></text>		</g>
		<g id="shape195-360" transform="translate(683.15,-721.063)">
			<title>成员.195</title>
			<desc>- double m_endAngle</desc>
			<rect x="0" y="1136.55" width="227.906" height="18" class="st10"/>
			<rect x="0" y="1136.55" width="227.906" height="18" class="st11"/>
			<text x="8.5" y="1149.17" class="st3">- <tspan class="st19">double  </tspan><tspan dx="4.095em" class="st21">m_</tspan><tspan
						class="st21">endAngle</tspan></text>		</g>
		<g id="shape201-367" transform="translate(399.685,-720.157)">
			<title>分隔符.201</title>
			<path d="M0 1153.13 L227.91 1153.13 L0 1153.13 Z" class="st8"/>
			<path d="M0 1153.13 L227.91 1153.13" class="st9"/>
		</g>
		<g id="shape202-370" transform="translate(399.685,-740.991)">
			<title>成员.202</title>
			<desc>- QPointF m_center</desc>
			<rect x="0" y="1136.55" width="227.906" height="18" class="st10"/>
			<rect x="0" y="1136.55" width="227.906" height="18" class="st11"/>
			<text x="8.5" y="1149.17" class="st3">- <tspan class="st19">QPointF </tspan><tspan dx="3.448em" class="st21">m_center</tspan></text>		</g>
		<g id="shape203-376" transform="translate(399.685,-702.157)">
			<title>成员.203</title>
			<desc>QPointF getStartPoint() override</desc>
			<rect x="0" y="1136.55" width="227.906" height="18" class="st10"/>
			<rect x="0" y="1136.55" width="227.906" height="18" class="st11"/>
			<text x="8.5" y="1149.75" class="st17">QPointF <tspan dx="3.42em" class="st13">getStartPoint()</tspan><tspan
						class="st13"> </tspan><tspan class="st18">override</tspan></text>		</g>
		<g id="shape204-383" transform="translate(399.685,-684.157)">
			<title>成员.204</title>
			<desc>QPointF getEndPoint() override</desc>
			<rect x="0" y="1136.55" width="227.906" height="18" class="st10"/>
			<rect x="0" y="1136.55" width="227.906" height="18" class="st11"/>
			<text x="8.5" y="1149.75" class="st17">QPointF <tspan dx="3.42em" class="st13">getEndPoint()</tspan><tspan class="st13"> </tspan><tspan
						class="st18">override</tspan></text>		</g>
		<g id="shape205-390" transform="translate(399.685,-722.991)">
			<title>成员.205</title>
			<desc>- double m_radius</desc>
			<rect x="0" y="1136.55" width="227.906" height="18" class="st10"/>
			<rect x="0" y="1136.55" width="227.906" height="18" class="st11"/>
			<text x="8.5" y="1149.17" class="st3">- <tspan class="st19">double  </tspan><tspan dx="4.095em" class="st21">m_</tspan><tspan
						class="st21">radius</tspan></text>		</g>
		<g id="shape281-397" transform="translate(158.74,-580.985)">
			<title>分隔符.281</title>
			<path d="M0 1153.13 L227.91 1153.13 L0 1153.13 Z" class="st8"/>
			<path d="M0 1153.13 L227.91 1153.13" class="st9"/>
		</g>
		<g id="shape282-400" transform="translate(158.74,-601.82)">
			<title>成员.282</title>
			<desc>- MPPolyline* m_closedLoop</desc>
			<rect x="0" y="1136.55" width="227.906" height="18" class="st10"/>
			<rect x="0" y="1136.55" width="227.906" height="18" class="st11"/>
			<text x="8.5" y="1149.17" class="st3">- <tspan class="st19">MPPolyline</tspan><tspan class="st19">* </tspan><tspan
						dx="1.921em" class="st21">m_closedLoop</tspan></text>		</g>
		<g id="shape285-407" transform="translate(158.74,-583.82)">
			<title>成员.285</title>
			<desc>- RefPosition m_refPosition</desc>
			<rect x="0" y="1136.55" width="227.906" height="18" class="st10"/>
			<rect x="0" y="1136.55" width="227.906" height="18" class="st11"/>
			<text x="8.5" y="1149.17" class="st3">- <tspan class="st19">RefPosition </tspan><tspan dx="2.384em" class="st21">m_</tspan><tspan
						class="st21">refPosition</tspan></text>		</g>
		<g id="group291-414" transform="translate(410.74,-574.172)">
			<title>注释.291</title>
			<desc>表示一个空间平面</desc>
			<g id="shape291-415">
				<path d="M0 1154.55 L70.87 1154.55 L70.87 1124.79 L62.36 1116.28 L0 1116.28 L0 1154.55 Z" class="st8"/>
				<path d="M0 1130.52 L-21.26 1127.57" class="st15"/>
				<path d="M0 1154.55 L70.87 1154.55 L70.87 1124.79 L62.36 1116.28 L0 1116.28 L0 1154.55" class="st15"/>
				<text x="4" y="1131.12" class="st16">表示一个空<tspan x="4" dy="1.287em" class="st23">间平面</tspan></text>			</g>
			<g id="shape292-421" transform="translate(62.3622,-29.7638)">
				<title>工作表.292</title>
				<path d="M0 1154.55 L8.5 1154.55 L8.5 1155.4 L8.5 1154.55 L0 1146.05 L-0.85 1146.05 L0 1146.05 L0 1154.55 Z"
						class="st2"/>
			</g>
		</g>
	</g>
</svg>
